<?xml version="1.0" encoding="UTF-8" standalone="no"?>
<svg xmlns:rdf="http://www.w3.org/1999/02/22-rdf-syntax-ns#" xmlns="http://www.w3.org/2000/svg" height="47.469mm" width="45.692mm" version="1.1" xmlns:cc="http://creativecommons.org/ns#" xmlns:dc="http://purl.org/dc/elements/1.1/" viewBox="0 0 161.90132 168.19582">
 <g transform="translate(-430.07 -303.1)">
  <path d="m476.94 350.26c-1.0733-3.4-2.3473-1.6958-9.383-3.7822-6.9273-2.0542-13.521-8.011-13.521-11.266 0-7.2613 17.694-11.409 31.69-7.4288 1.6651 0.47356 0.90438-1.1264-2.7091-5.6978-6.5402-8.2739-7.8718-13.629-3.9947-16.634 7.0869-6.1356 20.703 6.0044 25.851 10.684 1.9079 1.1802 9.1034 10.461 9.1624 4.7831 0-5.3203 4.1671-16.771 7.472-17.699 14.314-2.342 13.624 29.829 14.105 40.74-34.972 14.414-31.482 14.614-58.673 6.3006z" fill="#c61a1a"/>
 </g>
 <g transform="translate(-430.07 -303.1)">
  <path fill="#edb80b" d="m591.76 422.53c3.75-42.188-44.063-84.375-80.938-84.375s-85.938 45.625-80.313 86.563 60.625 46.875 80.625 46.563c20-0.3125 76.875-6.5625 80.625-48.75z"/>
 </g>
 <g transform="translate(-430.07 -303.1)" fill="#fff">
  <circle cx="479.82" cy="401.3" r="29.294"/>
  <circle cx="543.62" cy="401.28" r="29.294"/>
 </g>
 <g transform="translate(-430.07 -303.1)">
  <circle cx="482.37" cy="400.81" r="19.698"/>
  <circle cx="540.94" cy="401.32" r="19.698"/>
 </g>
 <g transform="translate(-430.07 -303.1)" fill="#fff">
  <ellipse rx="8.4909" ry="5.2318" transform="matrix(.75901 .65107 -.61181 .79101 0 0)" cy="-19.871" cx="628.13"/>
  <ellipse rx="8.4909" ry="5.2318" transform="matrix(.75901 .65107 -.61181 .79101 0 0)" cy="-57.353" cx="674.44"/>
 </g>
 <g transform="translate(-430.07 -303.1)">
  <path d="m496.43 431.65c9.2857-3.9286 22.143-3.5714 30.357 0.71429l-14.821 29.286z" fill-rule="evenodd" fill="#da760d"/>
 </g>
</svg>
