<?xml version="1.0" encoding="UTF-8" standalone="no"?>
<!-- Created with Inkscape (http://www.inkscape.org/) -->
<svg id="svg2" xmlns:rdf="http://www.w3.org/1999/02/22-rdf-syntax-ns#" xmlns="http://www.w3.org/2000/svg" height="73.592mm" width="45.692mm" version="1.1" xmlns:cc="http://creativecommons.org/ns#" xmlns:dc="http://purl.org/dc/elements/1.1/" viewBox="0 0 161.90132 260.76063">
<metadata id="metadata7">
<rdf:RDF>
<cc:Work rdf:about="">
<dc:format>image/svg+xml</dc:format>
<dc:type rdf:resource="http://purl.org/dc/dcmitype/StillImage"/>
<dc:title/>
</cc:Work>
</rdf:RDF>
</metadata>
<g id="layer13" transform="translate(-430.07 -303.1)">
<path id="path4441" d="m505.08 545.44c-10.372-4.6543-9.1032-14.635-13.567-20.561-2.0863-2.7114-4.3088-2.7893-9.6722-1.3548-12.985 6.3985-11.584-11.897-11.682-20.538 0-10.481 2.6232-16.912 8.3005-25.463 5.0405-7.5916 8.0744-12.034 5.4812-12.034 4.9114-16.149 52.307-9.1873 53.636-0.50508-2.5931 0 2.3347 4.1902 7.3753 11.782 2.4486 3.6879 5.5136 9.8987 6.5025 13.185 2.4028 7.9839 2.8229 19.576 0.18711 27.3-2.0344 5.9618-2.2022 7.9833-6.2552 6.9781-5.4367-1.3484-5.9409-3.2711-9.7488-2.7716-3.7227 0.48839-2.3094 2.6275-8.2367 14.883-4.6434 9.6009-13.082 12.559-22.32 9.0992z" fill="#a27e0a"/>
</g>
<g id="layer15" fill-rule="evenodd" transform="translate(-430.07 -303.1)" fill="#ff8200">
<path id="path4480" d="m498.45 554.67c-1.7678 1.1996-11.433 3.4837-10.354 4.672 1.1004 1.2122 8.1253-2.7543 9.0914-1.894 0.96611 0.86028-2.5885 6.124-1.0733 6.2503 1.5152 0.12627 4.8332-6.9015 6.566-7.0079 1.7328-0.10641 5.6107 3.7235 6.6291 2.5885 1.0185-1.135-4.6088-3.6618-5.9346-4.672-0.50508-1.7678-0.0631-27.716-0.0631-27.716l-4.8614 0.12627s0.44194 25.506 0 27.653z"/>
<path id="path4480-4" d="m524.54 554.83c1.7678 1.1996 11.433 3.4837 10.354 4.672-1.1004 1.2122-8.1253-2.7543-9.0914-1.894-0.96611 0.86028 2.5885 6.124 1.0733 6.2503-1.5152 0.12627-4.8332-6.9015-6.566-7.0079-1.7328-0.10641-5.6107 3.7235-6.6291 2.5885-1.0185-1.135 4.6088-3.6618 5.9346-4.672 0.50508-1.7678 0.0631-27.716 0.0631-27.716l4.8614 0.12627s-0.44194 25.506 0 27.653z"/>
</g>
<g id="layer14" transform="translate(-430.07 -303.1)">
<path id="path4477" d="m484.29 474.33c28.929 4.8214 28.75 4.6429 55.179 0.17857 8.5714 24.821 0.0671 59.874-26.786 60.357-26.853 0.48302-39.643-35.536-28.393-60.536z" fill-rule="evenodd" fill="#edb80b"/>
</g>
<g id="layer3" transform="translate(-430.07 -303.1)">
<path id="path3384" d="m476.94 350.26c-1.0733-3.4-2.3473-1.6958-9.383-3.7822-6.9273-2.0542-13.521-8.011-13.521-11.266 0-7.2613 17.694-11.409 31.69-7.4288 1.6651 0.47356 0.90438-1.1264-2.7091-5.6978-6.5402-8.2739-7.8718-13.629-3.9947-16.634 7.0869-6.1356 20.703 6.0044 25.851 10.684 1.9079 1.1802 9.1034 10.461 9.1624 4.7831 0-5.3203 4.1671-16.771 7.472-17.699 14.314-2.342 13.624 29.829 14.105 40.74-34.972 14.414-31.482 14.614-58.673 6.3006z" fill="#c61a1a"/>
</g>
<g id="layer1" transform="translate(-430.07 -303.1)">
<path id="Bez nazwy" fill="#edb80b" d="m591.76 422.53c3.75-42.188-44.063-84.375-80.938-84.375s-85.938 45.625-80.313 86.563 60.625 46.875 80.625 46.563c20-0.3125 76.875-6.5625 80.625-48.75z"/>
</g>
<g id="layer8" transform="translate(-430.07 -303.1)" fill="#fff">
<circle id="path4339" cx="479.82" cy="401.3" r="29.294"/>
<circle id="path4339-1" cx="543.62" cy="401.28" r="29.294"/>
</g>
<g id="layer9" transform="translate(-430.07 -303.1)">
<circle id="path4357" cx="482.37" cy="400.81" r="19.698"/>
<circle id="path4357-0" cx="540.94" cy="401.32" r="19.698"/>
</g>
<g id="layer10" transform="translate(-430.07 -303.1)" fill="#fff">
<ellipse id="path4377" rx="8.4909" ry="5.2318" transform="matrix(.75901 .65107 -.61181 .79101 0 0)" cy="-19.871" cx="628.13"/>
<ellipse id="path4377-6" rx="8.4909" ry="5.2318" transform="matrix(.75901 .65107 -.61181 .79101 0 0)" cy="-57.353" cx="674.44"/>
</g>
<g id="layer11" transform="translate(-430.07 -303.1)">
<path id="path4397" d="m496.43 431.65c9.2857-3.9286 22.143-3.5714 30.357 0.71429l-14.821 29.286z" fill-rule="evenodd" fill="#da760d"/>
</g>
</svg>
